<?xml version="1.0" standalone="no"?>
<!DOCTYPE svg PUBLIC "-//W3C//DTD SVG 20010904//EN"
 "http://www.w3.org/TR/2001/REC-SVG-20010904/DTD/svg10.dtd">
<svg version="1.0" xmlns="http://www.w3.org/2000/svg"
 width="40.000000pt" height="40.000000pt" viewBox="0 0 40.000000 40.000000"
 preserveAspectRatio="xMidYMid meet">
<metadata>
Created by potrace 1.16, written by Peter Selinger 2001-2019
</metadata>
<g transform="translate(0.000000,40.000000) scale(0.007813,-0.007813)"
fill="#000000" stroke="none">
<path d="M2235 5105 c-462 -60 -885 -237 -1255 -523 -117 -91 -316 -287 -413
-407 -276 -342 -459 -746 -537 -1186 -28 -156 -39 -531 -21 -702 43 -399 182
-790 398 -1122 98 -150 184 -257 318 -394 419 -430 948 -690 1550 -760 134
-16 460 -13 605 4 748 93 1416 512 1833 1150 210 321 344 690 392 1075 20 162
20 477 0 640 -92 742 -510 1412 -1140 1826 -329 216 -695 350 -1085 399 -152
18 -501 18 -645 0z m50 -2061 c198 -432 361 -782 363 -777 1 4 143 357 315
783 l312 775 443 3 442 2 0 -29 c0 -25 -22 -50 -140 -162 l-140 -132 0 -947 0
-948 135 -130 c116 -112 135 -135 135 -161 l0 -31 -625 0 -625 0 0 28 c0 23
25 53 140 166 l140 137 -1 742 0 742 -127 -320 c-70 -176 -231 -582 -357 -902
l-230 -583 -50 0 -50 0 -415 905 -415 905 -3 -633 c-2 -464 1 -640 9 -660 7
-16 92 -126 191 -245 135 -165 178 -224 178 -244 l0 -28 -475 0 -475 0 0 26
c0 18 50 86 180 244 99 120 184 230 190 245 13 34 14 1514 1 1548 -5 13 -82
111 -170 217 -124 149 -161 200 -161 222 l0 28 463 0 463 0 359 -786z"/>
</g>
</svg>
